<?xml version="1.0" encoding="UTF-8"?>
<svg width="19px" height="28px" viewBox="0 0 19 28" version="1.1" xmlns="http://www.w3.org/2000/svg" xmlns:xlink="http://www.w3.org/1999/xlink">
    <!-- Generator: Sketch 49.1 (51147) - http://www.bohemiancoding.com/sketch -->
    <title>Group 2</title>
    <desc>Created with Sketch.</desc>
    <defs></defs>
    <g id="Page-1" stroke="none" stroke-width="1" fill="none" fill-rule="evenodd">
        <g id="Artboard-Copy" transform="translate(-562.000000, -550.000000)" stroke="#000000">
            <g id="Group" transform="translate(551.000000, 334.000000)">
                <g id="wine" transform="translate(0.000000, 208.000000)">
                    <g id="Group-2" transform="translate(12.000000, 8.000000)">
                        <path d="M8.88766285,16.081733 C8.76152429,16.0856363 8.63053882,16.0875224 8.5,16.0874998 C8.36946116,16.0875224 8.2384757,16.0856363 8.11233715,16.081733 C7.8743689,16.074537 7.65758957,16.0607413 7.49917114,16.0411064 C5.60171171,15.8063636 4.06590775,14.8848891 2.82819856,13.4866389 C1.77189726,12.2940176 1.0381047,10.9401308 0.65386243,9.42696484 C0.405983847,8.48872779 0.294258262,7.51485092 0.300226701,6.51310655 C0.288782581,4.65010809 0.709948987,2.85909955 1.71662534,1.16143043 C1.84419923,0.945759107 1.98722328,0.821042733 2.18566445,0.766631284 C2.40309452,0.68307693 2.67278481,0.716427564 3.00273009,0.734873835 C4.83517831,0.738336284 6.66762088,0.73782363 8.5,0.737954386 C10.3323791,0.73782363 12.1648217,0.738336284 13.9972699,0.734873835 C14.3272152,0.716427564 14.5969055,0.68307693 14.8143355,0.766631284 C15.0127767,0.821042733 15.1558008,0.945759107 15.2833747,1.16143043 C16.290051,2.85909955 16.7112174,4.65010809 16.6997733,6.51310655 C16.7057417,7.51485091 16.5940162,8.48872779 16.3461376,9.42696484 C15.9618953,10.9401308 15.2281027,12.2940176 14.1718014,13.4866389 C12.9340922,14.8848891 11.3982883,15.8063636 9.50082886,16.0411064 C9.34241043,16.0607413 9.1256311,16.074537 8.88766285,16.081733 Z" id="Combined-Shape"></path>
                        <path d="M8.75625,16.0875 L8.75625,26.85" id="Path-2" stroke-linecap="round"></path>
                        <path d="M5.425,26.59375 L12.0875,26.59375" id="Path-3" stroke-linecap="round"></path>
                        <path d="M3.375,2.7625 C2.69166667,3.84144737 2.35,5.5497807 2.35,7.8875" id="Path-4" stroke-linecap="round"></path>
                        <path d="M13.9907505,4.8125 C14.6057006,8.83365385 13.2879505,11.7378205 10.0375,13.525" id="Path-5" stroke-linecap="round"></path>
                    </g>
                </g>
            </g>
        </g>
    </g>
</svg>